<mxfile host="Electron" agent="Mozilla/5.0 (Windows NT 10.0; Win64; x64) AppleWebKit/537.36 (KHTML, like Gecko) draw.io/26.0.4 Chrome/128.0.6613.186 Electron/32.2.5 Safari/537.36" version="26.0.4">
  <diagram name="第 1 页" id="5UB8406Bn-pNAINf8s1h">
    <mxGraphModel dx="813" dy="607" grid="1" gridSize="10" guides="1" tooltips="1" connect="1" arrows="1" fold="1" page="1" pageScale="1" pageWidth="827" pageHeight="1169" math="0" shadow="0">
      <root>
        <mxCell id="0" />
        <mxCell id="1" parent="0" />
        <mxCell id="EVeiyt34mF13FASHOtXo-12" style="edgeStyle=orthogonalEdgeStyle;rounded=0;orthogonalLoop=1;jettySize=auto;html=1;exitX=0.5;exitY=1;exitDx=0;exitDy=0;entryX=0.5;entryY=0;entryDx=0;entryDy=0;" edge="1" parent="1" source="EVeiyt34mF13FASHOtXo-1" target="EVeiyt34mF13FASHOtXo-7">
          <mxGeometry relative="1" as="geometry" />
        </mxCell>
        <mxCell id="EVeiyt34mF13FASHOtXo-18" style="edgeStyle=orthogonalEdgeStyle;rounded=0;orthogonalLoop=1;jettySize=auto;html=1;exitX=0.5;exitY=1;exitDx=0;exitDy=0;entryX=0.5;entryY=0;entryDx=0;entryDy=0;" edge="1" parent="1" source="EVeiyt34mF13FASHOtXo-1" target="EVeiyt34mF13FASHOtXo-15">
          <mxGeometry relative="1" as="geometry" />
        </mxCell>
        <mxCell id="EVeiyt34mF13FASHOtXo-62" style="edgeStyle=orthogonalEdgeStyle;rounded=0;orthogonalLoop=1;jettySize=auto;html=1;exitX=0.5;exitY=1;exitDx=0;exitDy=0;entryX=0.5;entryY=0;entryDx=0;entryDy=0;" edge="1" parent="1" source="EVeiyt34mF13FASHOtXo-1" target="EVeiyt34mF13FASHOtXo-60">
          <mxGeometry relative="1" as="geometry" />
        </mxCell>
        <mxCell id="EVeiyt34mF13FASHOtXo-1" value="&amp;lt;start&amp;gt;" style="rounded=0;whiteSpace=wrap;html=1;" vertex="1" parent="1">
          <mxGeometry x="354" y="40" width="120" height="60" as="geometry" />
        </mxCell>
        <mxCell id="EVeiyt34mF13FASHOtXo-11" style="edgeStyle=orthogonalEdgeStyle;rounded=0;orthogonalLoop=1;jettySize=auto;html=1;exitX=0.5;exitY=1;exitDx=0;exitDy=0;entryX=0.5;entryY=0;entryDx=0;entryDy=0;" edge="1" parent="1" source="EVeiyt34mF13FASHOtXo-7" target="EVeiyt34mF13FASHOtXo-8">
          <mxGeometry relative="1" as="geometry" />
        </mxCell>
        <mxCell id="EVeiyt34mF13FASHOtXo-7" value="do" style="rounded=0;whiteSpace=wrap;html=1;" vertex="1" parent="1">
          <mxGeometry x="354" y="140" width="120" height="60" as="geometry" />
        </mxCell>
        <mxCell id="EVeiyt34mF13FASHOtXo-14" style="edgeStyle=orthogonalEdgeStyle;rounded=0;orthogonalLoop=1;jettySize=auto;html=1;exitX=0.5;exitY=1;exitDx=0;exitDy=0;entryX=0.5;entryY=0;entryDx=0;entryDy=0;" edge="1" parent="1" source="EVeiyt34mF13FASHOtXo-8" target="EVeiyt34mF13FASHOtXo-13">
          <mxGeometry relative="1" as="geometry" />
        </mxCell>
        <mxCell id="EVeiyt34mF13FASHOtXo-8" value="&amp;lt;statement&amp;gt;" style="rounded=0;whiteSpace=wrap;html=1;" vertex="1" parent="1">
          <mxGeometry x="354" y="240" width="120" height="60" as="geometry" />
        </mxCell>
        <mxCell id="EVeiyt34mF13FASHOtXo-10" style="edgeStyle=orthogonalEdgeStyle;rounded=0;orthogonalLoop=1;jettySize=auto;html=1;exitX=1;exitY=0.75;exitDx=0;exitDy=0;entryX=1;entryY=0.25;entryDx=0;entryDy=0;curved=1;" edge="1" parent="1" source="EVeiyt34mF13FASHOtXo-8" target="EVeiyt34mF13FASHOtXo-8">
          <mxGeometry relative="1" as="geometry">
            <Array as="points">
              <mxPoint x="500" y="285" />
              <mxPoint x="500" y="255" />
            </Array>
          </mxGeometry>
        </mxCell>
        <mxCell id="EVeiyt34mF13FASHOtXo-29" style="edgeStyle=orthogonalEdgeStyle;rounded=0;orthogonalLoop=1;jettySize=auto;html=1;exitX=0.5;exitY=1;exitDx=0;exitDy=0;entryX=0.5;entryY=0;entryDx=0;entryDy=0;" edge="1" parent="1" source="EVeiyt34mF13FASHOtXo-13" target="EVeiyt34mF13FASHOtXo-28">
          <mxGeometry relative="1" as="geometry" />
        </mxCell>
        <mxCell id="EVeiyt34mF13FASHOtXo-13" value="end" style="rounded=0;whiteSpace=wrap;html=1;" vertex="1" parent="1">
          <mxGeometry x="354" y="340" width="120" height="60" as="geometry" />
        </mxCell>
        <mxCell id="EVeiyt34mF13FASHOtXo-19" style="edgeStyle=orthogonalEdgeStyle;rounded=0;orthogonalLoop=1;jettySize=auto;html=1;exitX=0.5;exitY=1;exitDx=0;exitDy=0;entryX=0.5;entryY=0;entryDx=0;entryDy=0;" edge="1" parent="1" source="EVeiyt34mF13FASHOtXo-15" target="EVeiyt34mF13FASHOtXo-16">
          <mxGeometry relative="1" as="geometry" />
        </mxCell>
        <mxCell id="EVeiyt34mF13FASHOtXo-15" value="if" style="rounded=0;whiteSpace=wrap;html=1;" vertex="1" parent="1">
          <mxGeometry x="520" y="140" width="120" height="60" as="geometry" />
        </mxCell>
        <mxCell id="EVeiyt34mF13FASHOtXo-22" style="edgeStyle=orthogonalEdgeStyle;rounded=0;orthogonalLoop=1;jettySize=auto;html=1;exitX=0.5;exitY=1;exitDx=0;exitDy=0;entryX=0.5;entryY=0;entryDx=0;entryDy=0;" edge="1" parent="1" source="EVeiyt34mF13FASHOtXo-16" target="EVeiyt34mF13FASHOtXo-21">
          <mxGeometry relative="1" as="geometry" />
        </mxCell>
        <mxCell id="EVeiyt34mF13FASHOtXo-16" value="&amp;lt;expression&amp;gt;" style="rounded=0;whiteSpace=wrap;html=1;" vertex="1" parent="1">
          <mxGeometry x="520" y="240" width="120" height="60" as="geometry" />
        </mxCell>
        <mxCell id="EVeiyt34mF13FASHOtXo-24" style="edgeStyle=orthogonalEdgeStyle;rounded=0;orthogonalLoop=1;jettySize=auto;html=1;exitX=0.5;exitY=1;exitDx=0;exitDy=0;entryX=0.5;entryY=0;entryDx=0;entryDy=0;" edge="1" parent="1" source="EVeiyt34mF13FASHOtXo-21" target="EVeiyt34mF13FASHOtXo-23">
          <mxGeometry relative="1" as="geometry" />
        </mxCell>
        <mxCell id="EVeiyt34mF13FASHOtXo-21" value="do" style="rounded=0;whiteSpace=wrap;html=1;" vertex="1" parent="1">
          <mxGeometry x="520" y="340" width="120" height="60" as="geometry" />
        </mxCell>
        <mxCell id="EVeiyt34mF13FASHOtXo-27" style="edgeStyle=orthogonalEdgeStyle;rounded=0;orthogonalLoop=1;jettySize=auto;html=1;exitX=0.5;exitY=1;exitDx=0;exitDy=0;entryX=0.5;entryY=0;entryDx=0;entryDy=0;" edge="1" parent="1" source="EVeiyt34mF13FASHOtXo-23" target="EVeiyt34mF13FASHOtXo-26">
          <mxGeometry relative="1" as="geometry" />
        </mxCell>
        <mxCell id="EVeiyt34mF13FASHOtXo-23" value="&amp;lt;statement&amp;gt;" style="rounded=0;whiteSpace=wrap;html=1;" vertex="1" parent="1">
          <mxGeometry x="520" y="440" width="120" height="60" as="geometry" />
        </mxCell>
        <mxCell id="EVeiyt34mF13FASHOtXo-25" style="edgeStyle=orthogonalEdgeStyle;rounded=0;orthogonalLoop=1;jettySize=auto;html=1;exitX=1;exitY=0.75;exitDx=0;exitDy=0;entryX=1;entryY=0.25;entryDx=0;entryDy=0;curved=1;" edge="1" parent="1">
          <mxGeometry relative="1" as="geometry">
            <mxPoint x="640" y="485" as="sourcePoint" />
            <mxPoint x="640" y="455" as="targetPoint" />
            <Array as="points">
              <mxPoint x="666" y="485" />
              <mxPoint x="666" y="455" />
            </Array>
          </mxGeometry>
        </mxCell>
        <mxCell id="EVeiyt34mF13FASHOtXo-32" style="edgeStyle=orthogonalEdgeStyle;rounded=0;orthogonalLoop=1;jettySize=auto;html=1;exitX=0.5;exitY=1;exitDx=0;exitDy=0;entryX=0.5;entryY=0;entryDx=0;entryDy=0;" edge="1" parent="1" source="EVeiyt34mF13FASHOtXo-26" target="EVeiyt34mF13FASHOtXo-30">
          <mxGeometry relative="1" as="geometry" />
        </mxCell>
        <mxCell id="EVeiyt34mF13FASHOtXo-33" style="edgeStyle=orthogonalEdgeStyle;rounded=0;orthogonalLoop=1;jettySize=auto;html=1;exitX=0.5;exitY=1;exitDx=0;exitDy=0;entryX=0.5;entryY=0;entryDx=0;entryDy=0;" edge="1" parent="1" source="EVeiyt34mF13FASHOtXo-26" target="EVeiyt34mF13FASHOtXo-31">
          <mxGeometry relative="1" as="geometry" />
        </mxCell>
        <mxCell id="EVeiyt34mF13FASHOtXo-26" value="end" style="rounded=0;whiteSpace=wrap;html=1;" vertex="1" parent="1">
          <mxGeometry x="520" y="540" width="120" height="60" as="geometry" />
        </mxCell>
        <mxCell id="EVeiyt34mF13FASHOtXo-28" value="&amp;lt;end&amp;gt;" style="rounded=0;whiteSpace=wrap;html=1;" vertex="1" parent="1">
          <mxGeometry x="354" y="440" width="120" height="60" as="geometry" />
        </mxCell>
        <mxCell id="EVeiyt34mF13FASHOtXo-30" value="&amp;lt;end&amp;gt;" style="rounded=0;whiteSpace=wrap;html=1;" vertex="1" parent="1">
          <mxGeometry x="440" y="640" width="120" height="60" as="geometry" />
        </mxCell>
        <mxCell id="EVeiyt34mF13FASHOtXo-36" style="edgeStyle=orthogonalEdgeStyle;rounded=0;orthogonalLoop=1;jettySize=auto;html=1;exitX=0.5;exitY=1;exitDx=0;exitDy=0;entryX=0.5;entryY=0;entryDx=0;entryDy=0;" edge="1" parent="1" source="EVeiyt34mF13FASHOtXo-31" target="EVeiyt34mF13FASHOtXo-34">
          <mxGeometry relative="1" as="geometry" />
        </mxCell>
        <mxCell id="EVeiyt34mF13FASHOtXo-37" style="edgeStyle=orthogonalEdgeStyle;rounded=0;orthogonalLoop=1;jettySize=auto;html=1;exitX=0.5;exitY=1;exitDx=0;exitDy=0;entryX=0.5;entryY=0;entryDx=0;entryDy=0;" edge="1" parent="1" source="EVeiyt34mF13FASHOtXo-31" target="EVeiyt34mF13FASHOtXo-35">
          <mxGeometry relative="1" as="geometry" />
        </mxCell>
        <mxCell id="EVeiyt34mF13FASHOtXo-31" value="else" style="rounded=0;whiteSpace=wrap;html=1;" vertex="1" parent="1">
          <mxGeometry x="600" y="640" width="120" height="60" as="geometry" />
        </mxCell>
        <mxCell id="EVeiyt34mF13FASHOtXo-40" style="edgeStyle=orthogonalEdgeStyle;rounded=0;orthogonalLoop=1;jettySize=auto;html=1;exitX=0.5;exitY=1;exitDx=0;exitDy=0;entryX=0.5;entryY=0;entryDx=0;entryDy=0;" edge="1" parent="1" source="EVeiyt34mF13FASHOtXo-34" target="EVeiyt34mF13FASHOtXo-38">
          <mxGeometry relative="1" as="geometry" />
        </mxCell>
        <mxCell id="EVeiyt34mF13FASHOtXo-34" value="if" style="rounded=0;whiteSpace=wrap;html=1;" vertex="1" parent="1">
          <mxGeometry x="520" y="740" width="120" height="60" as="geometry" />
        </mxCell>
        <mxCell id="EVeiyt34mF13FASHOtXo-43" style="edgeStyle=orthogonalEdgeStyle;rounded=0;orthogonalLoop=1;jettySize=auto;html=1;exitX=0.5;exitY=1;exitDx=0;exitDy=0;entryX=0.5;entryY=0;entryDx=0;entryDy=0;" edge="1" parent="1" source="EVeiyt34mF13FASHOtXo-35" target="EVeiyt34mF13FASHOtXo-41">
          <mxGeometry relative="1" as="geometry" />
        </mxCell>
        <mxCell id="EVeiyt34mF13FASHOtXo-35" value="do" style="rounded=0;whiteSpace=wrap;html=1;" vertex="1" parent="1">
          <mxGeometry x="680" y="740" width="120" height="60" as="geometry" />
        </mxCell>
        <mxCell id="EVeiyt34mF13FASHOtXo-45" style="edgeStyle=orthogonalEdgeStyle;rounded=0;orthogonalLoop=1;jettySize=auto;html=1;exitX=0.5;exitY=1;exitDx=0;exitDy=0;entryX=0.5;entryY=0;entryDx=0;entryDy=0;" edge="1" parent="1" source="EVeiyt34mF13FASHOtXo-38" target="EVeiyt34mF13FASHOtXo-44">
          <mxGeometry relative="1" as="geometry" />
        </mxCell>
        <mxCell id="EVeiyt34mF13FASHOtXo-38" value="&amp;lt;expression&amp;gt;" style="rounded=0;whiteSpace=wrap;html=1;" vertex="1" parent="1">
          <mxGeometry x="520" y="840" width="120" height="60" as="geometry" />
        </mxCell>
        <mxCell id="EVeiyt34mF13FASHOtXo-47" style="edgeStyle=orthogonalEdgeStyle;rounded=0;orthogonalLoop=1;jettySize=auto;html=1;exitX=0.5;exitY=1;exitDx=0;exitDy=0;entryX=0.5;entryY=0;entryDx=0;entryDy=0;" edge="1" parent="1" source="EVeiyt34mF13FASHOtXo-41" target="EVeiyt34mF13FASHOtXo-46">
          <mxGeometry relative="1" as="geometry" />
        </mxCell>
        <mxCell id="EVeiyt34mF13FASHOtXo-41" value="&amp;lt;statement&amp;gt;" style="rounded=0;whiteSpace=wrap;html=1;" vertex="1" parent="1">
          <mxGeometry x="680" y="840" width="120" height="60" as="geometry" />
        </mxCell>
        <mxCell id="EVeiyt34mF13FASHOtXo-42" style="edgeStyle=orthogonalEdgeStyle;rounded=0;orthogonalLoop=1;jettySize=auto;html=1;exitX=1;exitY=0.75;exitDx=0;exitDy=0;entryX=1;entryY=0.25;entryDx=0;entryDy=0;curved=1;" edge="1" parent="1">
          <mxGeometry relative="1" as="geometry">
            <mxPoint x="801" y="885" as="sourcePoint" />
            <mxPoint x="801" y="855" as="targetPoint" />
            <Array as="points">
              <mxPoint x="827" y="885" />
              <mxPoint x="827" y="855" />
            </Array>
          </mxGeometry>
        </mxCell>
        <mxCell id="EVeiyt34mF13FASHOtXo-51" style="edgeStyle=orthogonalEdgeStyle;rounded=0;orthogonalLoop=1;jettySize=auto;html=1;exitX=0.5;exitY=1;exitDx=0;exitDy=0;" edge="1" parent="1" source="EVeiyt34mF13FASHOtXo-44" target="EVeiyt34mF13FASHOtXo-50">
          <mxGeometry relative="1" as="geometry" />
        </mxCell>
        <mxCell id="EVeiyt34mF13FASHOtXo-44" value="do" style="rounded=0;whiteSpace=wrap;html=1;" vertex="1" parent="1">
          <mxGeometry x="520" y="940" width="120" height="60" as="geometry" />
        </mxCell>
        <mxCell id="EVeiyt34mF13FASHOtXo-49" style="edgeStyle=orthogonalEdgeStyle;rounded=0;orthogonalLoop=1;jettySize=auto;html=1;exitX=0.5;exitY=1;exitDx=0;exitDy=0;entryX=0.5;entryY=0;entryDx=0;entryDy=0;" edge="1" parent="1" source="EVeiyt34mF13FASHOtXo-46" target="EVeiyt34mF13FASHOtXo-48">
          <mxGeometry relative="1" as="geometry" />
        </mxCell>
        <mxCell id="EVeiyt34mF13FASHOtXo-46" value="end" style="rounded=0;whiteSpace=wrap;html=1;" vertex="1" parent="1">
          <mxGeometry x="680" y="940" width="120" height="60" as="geometry" />
        </mxCell>
        <mxCell id="EVeiyt34mF13FASHOtXo-48" value="&amp;lt;end&amp;gt;" style="rounded=0;whiteSpace=wrap;html=1;" vertex="1" parent="1">
          <mxGeometry x="680" y="1040" width="120" height="60" as="geometry" />
        </mxCell>
        <mxCell id="EVeiyt34mF13FASHOtXo-54" style="edgeStyle=orthogonalEdgeStyle;rounded=0;orthogonalLoop=1;jettySize=auto;html=1;exitX=0.5;exitY=1;exitDx=0;exitDy=0;entryX=0.5;entryY=0;entryDx=0;entryDy=0;" edge="1" parent="1" source="EVeiyt34mF13FASHOtXo-50" target="EVeiyt34mF13FASHOtXo-53">
          <mxGeometry relative="1" as="geometry" />
        </mxCell>
        <mxCell id="EVeiyt34mF13FASHOtXo-50" value="&amp;lt;statement&amp;gt;" style="rounded=0;whiteSpace=wrap;html=1;" vertex="1" parent="1">
          <mxGeometry x="520" y="1040" width="120" height="60" as="geometry" />
        </mxCell>
        <mxCell id="EVeiyt34mF13FASHOtXo-52" style="edgeStyle=orthogonalEdgeStyle;rounded=0;orthogonalLoop=1;jettySize=auto;html=1;exitX=1;exitY=0.75;exitDx=0;exitDy=0;entryX=1;entryY=0.25;entryDx=0;entryDy=0;curved=1;" edge="1" parent="1">
          <mxGeometry relative="1" as="geometry">
            <mxPoint x="640" y="1085" as="sourcePoint" />
            <mxPoint x="640" y="1055" as="targetPoint" />
            <Array as="points">
              <mxPoint x="666" y="1085" />
              <mxPoint x="666" y="1055" />
            </Array>
          </mxGeometry>
        </mxCell>
        <mxCell id="EVeiyt34mF13FASHOtXo-57" style="edgeStyle=orthogonalEdgeStyle;rounded=0;orthogonalLoop=1;jettySize=auto;html=1;exitX=0.5;exitY=1;exitDx=0;exitDy=0;entryX=0.5;entryY=0;entryDx=0;entryDy=0;" edge="1" parent="1" source="EVeiyt34mF13FASHOtXo-53" target="EVeiyt34mF13FASHOtXo-56">
          <mxGeometry relative="1" as="geometry" />
        </mxCell>
        <mxCell id="EVeiyt34mF13FASHOtXo-58" style="edgeStyle=orthogonalEdgeStyle;rounded=0;orthogonalLoop=1;jettySize=auto;html=1;exitX=1;exitY=0.5;exitDx=0;exitDy=0;entryX=1;entryY=0.5;entryDx=0;entryDy=0;" edge="1" parent="1" source="EVeiyt34mF13FASHOtXo-53" target="EVeiyt34mF13FASHOtXo-31">
          <mxGeometry relative="1" as="geometry">
            <Array as="points">
              <mxPoint x="900" y="1170" />
              <mxPoint x="900" y="670" />
            </Array>
          </mxGeometry>
        </mxCell>
        <mxCell id="EVeiyt34mF13FASHOtXo-53" value="end" style="rounded=0;whiteSpace=wrap;html=1;" vertex="1" parent="1">
          <mxGeometry x="520" y="1140" width="120" height="60" as="geometry" />
        </mxCell>
        <mxCell id="EVeiyt34mF13FASHOtXo-56" value="&amp;lt;end&amp;gt;" style="rounded=0;whiteSpace=wrap;html=1;" vertex="1" parent="1">
          <mxGeometry x="520" y="1240" width="120" height="60" as="geometry" />
        </mxCell>
        <mxCell id="EVeiyt34mF13FASHOtXo-60" value="&amp;lt;expression&amp;gt;" style="rounded=0;whiteSpace=wrap;html=1;" vertex="1" parent="1">
          <mxGeometry x="190" y="140" width="120" height="60" as="geometry" />
        </mxCell>
      </root>
    </mxGraphModel>
  </diagram>
</mxfile>
